# xmcd
#
# Track frame offsets: 
#        150
#        20727
#        38666
#        64860
#        90251
#        106424
#        124871
#        139989
#        157468
#        179241
#        195612
#        207371
#
# Disc length: 2788 seconds
#
# Revision: 0
# Processed by: cddbd v1.5.2PL0 Copyright (c) Steve Scherf et al.
# Submitted via: ExactAudioCopyFreeDBPlugin 1.0
#
DISCID=b50ae20c
DTITLE=Sleepy Guitar Johnson - Let's Ride
DYEAR=2001
DGENRE=Blues
TTITLE0=Let's Ride (Cruiser)
TTITLE1=Knucklehead
TTITLE2=Roadtrip
TTITLE3=Roadhouse
TTITLE4=Triumph
TTITLE5=Boxer
TTITLE6=Evolution
TTITLE7='Round Noon (Chromehead)
TTITLE8=Indian
TTITLE9=Crotchrocket
TTITLE10=One Lane Road
TTITLE11=Untitled
EXTD=
EXTT0=
EXTT1=
EXTT2=
EXTT3=
EXTT4=
EXTT5=
EXTT6=
EXTT7=
EXTT8=
EXTT9=
EXTT10=
EXTT11=
PLAYORDER=
